HIERARCHY
ROOT Hips
{
	OFFSET 0.00000 0.00000 0.00000
	CHANNELS 6 Xposition Yposition Zposition Zrotation Yrotation Xrotation 
	JOINT LHipJoint
	{
		OFFSET 0 0 0
		CHANNELS 3 Zrotation Yrotation Xrotation
		JOINT LeftUpLeg
		{
			OFFSET 1.54859 -1.61379 0.86856
			CHANNELS 3 Zrotation Yrotation Xrotation
			JOINT LeftLeg
			{
				OFFSET 2.25087 -6.18423 0.00000
				CHANNELS 3 Zrotation Yrotation Xrotation
				JOINT LeftFoot
				{
					OFFSET 2.40328 -6.60297 0.00000
					CHANNELS 3 Zrotation Yrotation Xrotation
					JOINT LeftToeBase
					{
						OFFSET 0.17435 -0.47901 2.02453
						CHANNELS 3 Zrotation Yrotation Xrotation
						End Site
						{
							OFFSET 0.00000 -0.00000 1.04844
						}
					}
				}
			}
		}
	}
	JOINT RHipJoint
	{
		OFFSET 0 0 0
		CHANNELS 3 Zrotation Yrotation Xrotation
		JOINT RightUpLeg
		{
			OFFSET -1.54669 -1.61379 0.86856
			CHANNELS 3 Zrotation Yrotation Xrotation
			JOINT RightLeg
			{
				OFFSET -2.28132 -6.26789 0.00000
				CHANNELS 3 Zrotation Yrotation Xrotation
				JOINT RightFoot
				{
					OFFSET -2.51636 -6.91365 0.00000
					CHANNELS 3 Zrotation Yrotation Xrotation
					JOINT RightToeBase
					{
						OFFSET -0.15124 -0.41552 2.21090
						CHANNELS 3 Zrotation Yrotation Xrotation
						End Site
						{
							OFFSET -0.00000 -0.00000 1.13399
						}
					}
				}
			}
		}
	}
	JOINT LowerBack
	{
		OFFSET 0 0 0
		CHANNELS 3 Zrotation Yrotation Xrotation
		JOINT Spine
		{
			OFFSET -0.04287 2.26161 -0.25690
			CHANNELS 3 Zrotation Yrotation Xrotation
			JOINT Spine1
			{
				OFFSET 0.02248 2.28395 -0.10140
				CHANNELS 3 Zrotation Yrotation Xrotation
				JOINT Neck
				{
					OFFSET 0 0 0
					CHANNELS 3 Zrotation Yrotation Xrotation
					JOINT Neck1
					{
						OFFSET -0.11644 1.38496 0.11345
						CHANNELS 3 Zrotation Yrotation Xrotation
						JOINT Head
						{
							OFFSET 0.29383 1.36600 0.06642
							CHANNELS 3 Zrotation Yrotation Xrotation
							End Site
							{
								OFFSET 0.11075 1.41395 -0.00294
							}
						}
					}
				}
				JOINT LeftShoulder
				{
					OFFSET 0 0 0
					CHANNELS 3 Zrotation Yrotation Xrotation
					JOINT LeftArm
					{
						OFFSET 3.51628 0.59542 -0.30346
						CHANNELS 3 Zrotation Yrotation Xrotation
						JOINT LeftForeArm
						{
							OFFSET 4.76405 -0.00000 0.00000
							CHANNELS 3 Zrotation Yrotation Xrotation
							JOINT LeftHand
							{
								OFFSET 3.13759 -0.00000 -0.00000
								CHANNELS 3 Zrotation Yrotation Xrotation
								JOINT LeftFingerBase
								{
									OFFSET 0 0 0
									CHANNELS 3 Zrotation Yrotation Xrotation
									JOINT LeftHandIndex1
									{
										OFFSET 0.73226 -0.00000 -0.00000
										CHANNELS 3 Zrotation Yrotation Xrotation
										End Site
										{
											OFFSET 0.59037 -0.00000 -0.00000
										}
									}
								}
								JOINT LThumb
								{
									OFFSET 0 0 0
									CHANNELS 3 Zrotation Yrotation Xrotation
									End Site
									{
										OFFSET 0.59938 -0.00000 0.59938
									}
								}
							}
						}
					}
				}
				JOINT RightShoulder
				{
					OFFSET 0 0 0
					CHANNELS 3 Zrotation Yrotation Xrotation
					JOINT RightArm
					{
						OFFSET -3.30990 0.84213 -0.36430
						CHANNELS 3 Zrotation Yrotation Xrotation
						JOINT RightForeArm
						{
							OFFSET -5.10161 -0.00000 -0.00000
							CHANNELS 3 Zrotation Yrotation Xrotation
							JOINT RightHand
							{
								OFFSET -3.23267 -0.00000 -0.00000
								CHANNELS 3 Zrotation Yrotation Xrotation
								JOINT RightFingerBase
								{
									OFFSET 0 0 0
									CHANNELS 3 Zrotation Yrotation Xrotation
									JOINT RightHandIndex1
									{
										OFFSET -0.70200 -0.00000 -0.00000
										CHANNELS 3 Zrotation Yrotation Xrotation
										End Site
										{
											OFFSET -0.56597 -0.00000 -0.00000
										}
									}
								}
								JOINT RThumb
								{
									OFFSET 0 0 0
									CHANNELS 3 Zrotation Yrotation Xrotation
									End Site
									{
										OFFSET -0.57461 -0.00000 0.57461
									}
								}
							}
						}
					}
				}
			}
		}
	}
}
MOTION
Frames: 9
Frame Time: 0.0769231
0.00 0.00 0.00 0 0 0 0 0 0 -21 0 0 0 0 0 0 0 0 0 0 0 0 0 0 21 0 0 0 0 0 0 0 0 0 0 0 0 0 0 0 0 0 0 0 0 0 0 -16 0 0 21 0 0 11 0 0 0 -8 0 0 0 0 0 0 0 0 0 0 0 0 0 0 0 0 0 0 0 0 8 0 0 0 0 0 0 0 0 0 0 0 0 0 0 0 0 0
0.00 0.00 0.00 2.8735 -31.3384 -2.6798 0.0000 0.0000 0.0000 -16.4678 6.0552 -2.9544 2.8632 10.4703 30.5134 1.9228 -1.2448 -25.8832 1.1167 -6.7132 -18.8685 0.0000 0.0000 0.0000 8.0366 -8.8505 -25.8466 -6.3835 -14.7899 46.5019 -0.7109 -10.8943 -23.3637 -1.1839 6.9052 -19.4347 -10.8444 0.5253 9.6740 0.0291 -0.1935 6.8825 6.1404 -0.5200 1.8991 -18.1948 -14.2740 5.6234 29.1428 -18.8660 -13.4738 11.7481 -10.3426 0.1316 -0.0000 0.0000 0.0000 -88.5804 3.7975 40.0555 27.9699 -39.0885 -10.1047 -0.0000 0.0000 -23.5786 20.9464 25.0595 9.2095 -7.1250 0.0000 -0.0000 -9.4611 56.3244 -2.6439 -0.0000 0.0000 0.0000 93.6441 5.8929 22.1457 -22.4305 33.4601 -6.8217 0.0000 -0.0000 -6.1752 -22.3413 21.7352 -8.6534 7.1250 -0.0000 -0.0000 4.0453 -6.7117 3.5539
0.00 0.00 0.00 -0.5024 -18.6774 7.2509 0.0000 0.0000 0.0000 -7.0486 8.2717 -21.0344 4.6720 13.0046 39.3857 1.3919 -2.8825 -21.5482 2.8102 -10.3812 -30.2203 0.0000 0.0000 0.0000 13.1538 -13.1223 -41.9065 -11.1666 -18.0156 63.3213 -0.7714 -5.2386 -19.3035 -2.8088 10.3789 -30.2126 -11.1966 0.1331 16.3950 0.5758 -1.6022 5.7208 7.2610 -0.9142 -2.6722 -18.1513 -17.2298 2.8443 36.0369 -21.3548 -20.7261 13.6414 -12.2122 0.3485 0.0000 -0.0000 0.0000 -79.7304 14.6911 46.1022 44.3241 -50.4330 -21.7165 -0.0000 0.0000 -23.1416 28.1328 20.4064 10.5605 -7.1250 0.0000 -0.0000 -0.3825 52.8525 -0.0739 0.0000 -0.0000 0.0000 92.4619 -6.4484 28.8482 -35.9338 45.4675 -15.4753 0.0000 -0.0000 -17.4095 -33.4619 32.3857 -19.4942 7.1250 -0.0000 -0.0000 -0.8160 7.2621 -0.9127
0.00 0.00 0.00 -2.9185 -14.5842 12.5032 0.0000 0.0000 0.0000 2.9385 13.4213 -37.3185 8.4868 16.4659 54.2977 1.3800 -11.2899 -21.2928 6.6870 -15.0625 -47.6803 0.0000 0.0000 0.0000 2.5288 -2.1268 -55.1939 -10.0164 -17.4191 59.5433 -0.0218 -13.6700 -19.6796 -0.5296 4.6633 -12.9506 -10.7080 3.4676 33.5944 2.1609 0.8841 9.0760 7.6582 0.3071 -7.1998 -13.9402 -17.0129 3.6939 44.6289 -16.3559 -41.3490 20.9443 -12.5395 -6.2724 0.0000 0.0000 0.0000 -89.8248 -0.4091 31.1788 50.7052 -53.2760 -26.7383 -0.0000 0.0000 -18.1010 31.4437 19.2897 11.4195 -7.1250 0.0000 -0.0000 3.2712 52.2558 0.5848 0.0000 0.0000 0.0000 94.7335 6.0313 8.3696 -37.8909 46.7695 -16.8861 0.0000 -0.0000 -28.0711 -39.1581 32.5850 -23.6811 7.1250 -0.0000 -0.0000 -3.8600 9.4388 -4.4501
0.00 0.00 0.00 2.7266 -12.3281 8.8496 0.0000 0.0000 0.0000 8.1017 15.2378 -28.8290 7.5885 15.8081 51.0666 1.3379 -11.5277 -21.0222 8.5357 -16.4995 -54.4703 0.0000 0.0000 0.0000 -5.5688 -12.6233 -64.6423 -11.6798 -18.2520 64.9703 0.2656 -14.1654 -16.7532 -0.4154 4.1372 -11.4630 -9.2360 2.5862 45.2621 4.3479 -0.5851 12.2691 9.7080 -0.6734 -7.0300 -14.7802 -15.0238 4.5132 42.1277 -13.9323 -41.4813 21.1084 -11.0472 -7.7696 0.0000 -0.0000 0.0000 -92.0624 -38.1002 36.9889 67.8417 -58.0610 -40.9353 -0.0000 0.0000 -24.9845 30.3794 18.8186 10.7080 -7.1250 0.0000 -0.0000 2.2336 51.5218 0.3589 0.0000 -0.0000 0.0000 80.0221 8.9602 -5.8207 -74.3833 59.0581 -46.5183 0.0000 -0.0000 -42.2048 -45.2112 35.3881 -30.2591 7.1250 -0.0000 -0.0000 -6.2008 15.0279 -7.6346
0.00 0.00 0.00 6.5657 -18.5368 11.1918 0.0000 0.0000 0.0000 6.1062 17.1786 -16.3712 3.8917 12.0149 35.7846 1.1795 -4.7567 -19.5030 8.4584 -16.4463 -54.1976 0.0000 0.0000 0.0000 -4.1794 -12.8291 -73.7300 -16.2193 -19.6538 78.8844 -0.2672 -14.0263 -22.6920 -0.0262 1.0443 -2.8708 -7.6595 0.4959 38.5361 3.6745 -2.0526 11.5072 8.7008 -1.3183 -5.7091 -15.8160 -13.3603 2.9767 37.6304 -12.6377 -37.7810 18.3195 -9.3708 -7.2340 -0.0000 -0.0000 0.0000 -81.7779 -36.9434 22.4213 73.0647 -58.8881 -45.3884 -0.0000 0.0000 -32.6025 30.7179 17.6747 10.2262 -7.1250 0.0000 -0.0000 2.7358 50.2977 0.3575 -0.0000 -0.0000 0.0000 68.0352 11.7600 -14.4407 -86.0280 59.9403 -56.5608 0.0000 -0.0000 -45.1735 -44.8499 36.6087 -30.6777 7.1250 -0.0000 -0.0000 -5.6195 16.1678 -6.9901
0.00 0.00 0.00 6.9116 -26.6328 17.1324 0.0000 0.0000 0.0000 1.9999 13.1689 -1.0321 0.8093 5.7411 16.0350 0.0140 14.8339 -21.2123 6.7832 -15.1466 -48.0495 0.0000 0.0000 0.0000 -1.3093 -8.3153 -78.8932 -17.3812 -19.8348 82.3230 -0.8653 -9.7148 -23.6344 -0.0317 1.1485 -3.1574 -0.9470 -1.9586 29.5639 1.7285 -2.7997 9.8825 3.3769 -1.4728 -4.9828 -16.0166 -11.4121 0.3233 31.5343 -11.0792 -33.6423 14.9005 -7.4696 -6.6397 -0.0000 0.0000 0.0000 -72.8876 -26.1151 9.1216 70.8052 -58.5610 -43.4571 -0.0000 0.0000 -40.7369 28.1049 17.5075 9.1273 -7.1250 0.0000 -0.0000 0.1388 49.6573 0.0159 -0.0000 0.0000 0.0000 57.4720 19.2817 -19.2603 -85.2625 59.9150 -55.8984 0.0000 -0.0000 -45.0991 -46.4833 37.6129 -32.7318 7.1250 -0.0000 -0.0000 -6.0901 18.0018 -7.7093
0.00 0.00 0.00 10.3184 -33.7908 16.0872 0.0000 0.0000 0.0000 -2.9116 12.9784 7.3182 0.4625 4.3622 12.0979 -4.6126 35.2272 -8.5298 2.0740 -9.0186 -25.8536 0.0000 0.0000 0.0000 1.8816 -6.9495 -70.9013 -17.7628 -19.8796 83.4463 -2.7022 -7.3811 -34.3114 -1.3507 7.3575 -20.7788 0.5907 -2.3426 27.3034 0.2941 -3.0029 8.3413 0.9301 -1.5227 -5.7933 -16.8732 -9.7534 -0.2560 26.6036 -9.9158 -30.3530 12.7404 -6.0932 -6.2823 0.0000 -0.0000 0.0000 -70.3279 -7.2819 -2.9939 68.4550 -58.1713 -41.4561 -0.0000 0.0000 -47.3137 22.2086 19.2731 7.6748 -7.1250 0.0000 -0.0000 -6.0895 50.5721 -0.8389 0.0000 -0.0000 0.0000 43.0947 30.2019 -27.1139 -75.2278 59.1592 -47.2430 0.0000 -0.0000 -44.0449 -49.4631 37.6835 -35.5574 7.1250 -0.0000 -0.0000 -7.5254 19.5820 -9.6778
0.00 0.00 0.00 10.8190 -34.8522 17.0047 0.0000 0.0000 0.0000 -2.8482 17.6359 -7.6005 3.4735 11.4247 33.7259 -0.2088 11.1601 4.1478 4.2731 -12.5152 -37.5796 0.0000 0.0000 0.0000 6.2599 -7.6567 -64.8258 -16.7372 -19.7428 80.4209 -3.3431 -9.4662 -38.7349 -2.4969 9.8322 -28.4350 1.0833 -1.5729 26.4275 -0.4119 -1.9589 7.8142 -0.4648 -1.0142 -6.0011 -15.8682 -10.6061 -0.0329 27.4025 -10.8268 -31.4397 12.9255 -6.7747 -6.4363 0.0000 0.0000 0.0000 -70.2277 -1.6380 -6.7726 68.4687 -58.1737 -41.4677 -0.0000 0.0000 -48.1336 22.1002 18.9153 7.4989 -7.1250 0.0000 -0.0000 -6.0969 50.1784 -0.7808 0.0000 0.0000 0.0000 38.3981 28.9525 -33.5034 -74.4401 59.0651 -46.5670 0.0000 -0.0000 -44.4071 -50.3648 38.6361 -37.0087 7.1250 -0.0000 -0.0000 -7.6034 21.0549 -9.8937
